HIERARCHY
ROOT Hips
{
    OFFSET   0.000000   0.000000   0.000000
    CHANNELS 6 Xposition Yposition Zposition Zrotation Xrotation Yrotation
    JOINT Chest
    {
        OFFSET   0.000000   8.007230   0.000000
        CHANNELS 3 Zrotation Xrotation Yrotation
        JOINT Chest2
        {
            OFFSET   0.000000  22.077100   0.000000
            CHANNELS 3 Zrotation Xrotation Yrotation
            JOINT Neck
            {
                OFFSET   0.000000  23.254700   0.000000
                CHANNELS 3 Zrotation Xrotation Yrotation
                JOINT Head
                {
                    OFFSET   0.000010  14.370000   1.956610
                    CHANNELS 3 Zrotation Xrotation Yrotation
                    End Site
                    {
                        OFFSET   0.000000  19.566000   0.000000
                    }
                }
            }
            JOINT LeftCollar
            {
                OFFSET   3.911900  19.017000  -0.467063
                CHANNELS 3 Zrotation Xrotation Yrotation
                JOINT LeftShoulder
                {
                    OFFSET  10.383700   0.000000   0.000000
                    CHANNELS 3 Zrotation Xrotation Yrotation
                    JOINT LeftElbow
                    {
                        OFFSET  26.662100   0.001671   0.000522
                        CHANNELS 3 Zrotation Xrotation Yrotation
                        JOINT LeftWrist
                        {
                            OFFSET  28.869000   0.000037  -0.000114
                            CHANNELS 3 Zrotation Xrotation Yrotation
                            JOINT LeftFinger0
                            {
                                OFFSET   2.044650  -2.323450   3.252850
                                CHANNELS 3 Zrotation Xrotation Yrotation
                                JOINT LeftFinger01
                                {
                                    OFFSET   3.088140   0.000000   0.000000
                                    CHANNELS 3 Zrotation Xrotation Yrotation
                                    JOINT LeftFinger02
                                    {
                                        OFFSET   2.639460   0.000000   0.000000
                                        CHANNELS 3 Zrotation Xrotation Yrotation
                                        End Site
                                        {
                                            OFFSET   2.582190   0.000000   0.000000
                                        }
                                    }
                                }
                            }
                            JOINT LeftFinger1
                            {
                                OFFSET   8.364480   0.000000   3.252850
                                CHANNELS 3 Zrotation Xrotation Yrotation
                                JOINT LeftFinger11
                                {
                                    OFFSET   4.646930   0.000000   0.000000
                                    CHANNELS 3 Zrotation Xrotation Yrotation
                                    JOINT LeftFinger12
                                    {
                                        OFFSET   2.323470   0.000000   0.000000
                                        CHANNELS 3 Zrotation Xrotation Yrotation
                                        End Site
                                        {
                                            OFFSET   2.273050   0.000000   0.000000
                                        }
                                    }
                                }
                            }
                            JOINT LeftFinger2
                            {
                                OFFSET   8.364490   0.000016   1.078090
                                CHANNELS 3 Zrotation Xrotation Yrotation
                                JOINT LeftFinger21
                                {
                                    OFFSET   5.111620   0.000000   0.000000
                                    CHANNELS 3 Zrotation Xrotation Yrotation
                                    JOINT LeftFinger22
                                    {
                                        OFFSET   2.788150   0.000013   0.000000
                                        CHANNELS 3 Zrotation Xrotation Yrotation
                                        End Site
                                        {
                                            OFFSET   2.727660   0.000000   0.000000
                                        }
                                    }
                                }
                            }
                            JOINT LeftFinger3
                            {
                                OFFSET   7.899780   0.000016  -1.078090
                                CHANNELS 3 Zrotation Xrotation Yrotation
                                JOINT LeftFinger31
                                {
                                    OFFSET   4.646930   0.000000   0.000000
                                    CHANNELS 3 Zrotation Xrotation Yrotation
                                    JOINT LeftFinger32
                                    {
                                        OFFSET   2.323470   0.000000   0.000000
                                        CHANNELS 3 Zrotation Xrotation Yrotation
                                        End Site
                                        {
                                            OFFSET   2.273050   0.000000   0.000000
                                        }
                                    }
                                }
                            }
                            JOINT LeftFinger4
                            {
                                OFFSET   7.435080   0.000000  -3.252850
                                CHANNELS 3 Zrotation Xrotation Yrotation
                                JOINT LeftFinger41
                                {
                                    OFFSET   3.717550   0.000000   0.000000
                                    CHANNELS 3 Zrotation Xrotation Yrotation
                                    JOINT LeftFinger42
                                    {
                                        OFFSET   1.858760   0.000000   0.000000
                                        CHANNELS 3 Zrotation Xrotation Yrotation
                                        End Site
                                        {
                                            OFFSET   1.818440   0.000000   0.000000
                                        }
                                    }
                                }
                            }
                        }
                    }
                }
            }
            JOINT RightCollar
            {
                OFFSET  -3.911900  19.017000  -0.467064
                CHANNELS 3 Zrotation Xrotation Yrotation
                JOINT RightShoulder
                {
                    OFFSET -10.383700   0.000000   0.000000
                    CHANNELS 3 Zrotation Xrotation Yrotation
                    JOINT RightElbow
                    {
                        OFFSET -26.662100   0.001633   0.000260
                        CHANNELS 3 Zrotation Xrotation Yrotation
                        JOINT RightWrist
                        {
                            OFFSET -28.869000  -0.000045  -0.000080
                            CHANNELS 3 Zrotation Xrotation Yrotation
                            JOINT RightFinger0
                            {
                                OFFSET  -2.044660  -2.323490   3.252850
                                CHANNELS 3 Zrotation Xrotation Yrotation
                                JOINT RightFinger01
                                {
                                    OFFSET  -3.088140   0.000000   0.000000
                                    CHANNELS 3 Zrotation Xrotation Yrotation
                                    JOINT RightFinger02
                                    {
                                        OFFSET  -2.639450   0.000000   0.000000
                                        CHANNELS 3 Zrotation Xrotation Yrotation
                                        End Site
                                        {
                                            OFFSET  -2.582190   0.000000   0.000000
                                        }
                                    }
                                }
                            }
                            JOINT RightFinger1
                            {
                                OFFSET  -8.364480   0.000000   3.252850
                                CHANNELS 3 Zrotation Xrotation Yrotation
                                JOINT RightFinger11
                                {
                                    OFFSET  -4.646920   0.000000   0.000000
                                    CHANNELS 3 Zrotation Xrotation Yrotation
                                    JOINT RightFinger12
                                    {
                                        OFFSET  -2.323470   0.000000   0.000000
                                        CHANNELS 3 Zrotation Xrotation Yrotation
                                        End Site
                                        {
                                            OFFSET  -2.273050   0.000000   0.000000
                                        }
                                    }
                                }
                            }
                            JOINT RightFinger2
                            {
                                OFFSET  -8.364480   0.000000   1.078090
                                CHANNELS 3 Zrotation Xrotation Yrotation
                                JOINT RightFinger21
                                {
                                    OFFSET  -5.111610   0.000000   0.000000
                                    CHANNELS 3 Zrotation Xrotation Yrotation
                                    JOINT RightFinger22
                                    {
                                        OFFSET  -2.788160   0.000000   0.000000
                                        CHANNELS 3 Zrotation Xrotation Yrotation
                                        End Site
                                        {
                                            OFFSET  -2.727660   0.000000   0.000000
                                        }
                                    }
                                }
                            }
                            JOINT RightFinger3
                            {
                                OFFSET  -7.899780   0.000000  -1.078090
                                CHANNELS 3 Zrotation Xrotation Yrotation
                                JOINT RightFinger31
                                {
                                    OFFSET  -4.646930   0.000000   0.000000
                                    CHANNELS 3 Zrotation Xrotation Yrotation
                                    JOINT RightFinger32
                                    {
                                        OFFSET  -2.323470   0.000000   0.000000
                                        CHANNELS 3 Zrotation Xrotation Yrotation
                                        End Site
                                        {
                                            OFFSET  -2.273050   0.000000   0.000000
                                        }
                                    }
                                }
                            }
                            JOINT RightFinger4
                            {
                                OFFSET  -7.435090   0.000000  -3.252850
                                CHANNELS 3 Zrotation Xrotation Yrotation
                                JOINT RightFinger41
                                {
                                    OFFSET  -3.717550   0.000000   0.000000
                                    CHANNELS 3 Zrotation Xrotation Yrotation
                                    JOINT RightFinger42
                                    {
                                        OFFSET  -1.858760   0.000000   0.000000
                                        CHANNELS 3 Zrotation Xrotation Yrotation
                                        End Site
                                        {
                                            OFFSET  -1.818440   0.000000   0.000000
                                        }
                                    }
                                }
                            }
                        }
                    }
                }
            }
        }
    }
    JOINT LeftHip
    {
        OFFSET   9.782990   0.000000   0.000000
        CHANNELS 3 Zrotation Xrotation Yrotation
        JOINT LeftKnee
        {
            OFFSET  -0.000063 -41.789100   0.001657
            CHANNELS 3 Zrotation Xrotation Yrotation
            JOINT LeftAnkle
            {
                OFFSET   0.000078 -41.133200  -0.000113
                CHANNELS 3 Zrotation Xrotation Yrotation
                JOINT LeftToe
                {
                    OFFSET   0.000000  -6.358970  14.674500
                    CHANNELS 3 Zrotation Xrotation Yrotation
                    End Site
                    {
                        OFFSET   0.000000   0.000000   3.913200
                    }
                }
            }
        }
    }
    JOINT RightHip
    {
        OFFSET  -9.782990   0.000000   0.000000
        CHANNELS 3 Zrotation Xrotation Yrotation
        JOINT RightKnee
        {
            OFFSET   0.000053 -41.789200   0.000277
            CHANNELS 3 Zrotation Xrotation Yrotation
            JOINT RightAnkle
            {
                OFFSET   0.000030 -41.133200  -0.000150
                CHANNELS 3 Zrotation Xrotation Yrotation
                JOINT RightToe
                {
                    OFFSET   0.000000  -6.358960  14.674500
                    CHANNELS 3 Zrotation Xrotation Yrotation
                    End Site
                    {
                        OFFSET   0.000000   0.000000   3.913200
                    }
                }
            }
        }
    }
}
MOTION
Frames: 4
Frame Time:   0.016667
 -0.641638  89.575800  -1.019600  -0.452106  -9.818900   5.682030   0.888679   5.641920   0.484562   1.741450  11.290500   0.887248  -9.702930   1.980290   0.338147 -15.986800   3.672460  13.218300  -2.180440   0.149975   1.454100 -52.483100   6.757650 -66.283700  11.250400 -28.819700 -110.220000  31.199800 -39.519700  16.596500  46.056800  45.999200 -91.464900 -24.633200   0.019679   0.009986  -7.316630   0.012526  -0.030007 -35.486900   4.214860  -6.350930 -29.239200   0.007401  -0.020861 -20.467400  -0.001659  -0.011842 -30.802400  -3.728470   6.169770 -47.295800  -0.018814  -0.076411 -31.499000   0.011890  -0.050248 -29.866900  -4.137580   7.165000 -45.231100  -0.024273  -0.065910 -30.124000   0.000295  -0.046108 -37.237400  -4.934590   6.439080 -56.253400  -0.015015  -0.048719 -37.464700   0.004497  -0.036658   3.509030   0.347840   7.111700  71.730200  23.506900   0.273701  -3.284930  -0.105712  17.406600 -12.420100  -7.203080   0.029959 -37.540700  29.293000  62.187200  30.538900   0.005008  -0.002855  10.269500   0.002491  -0.003818  29.391600   7.352490  12.801300  24.723600  -0.002658   0.002738  17.306500  -0.001854   0.002057  28.419600   4.741440   8.684860  41.305800  -0.002865   0.010130  27.509700  -0.001876   0.007020  28.171900   3.728730   6.923200  35.093600  -0.002276   0.000124  23.372400  -0.001502  -0.000158  38.520400  -0.655302  -0.823163  57.787700  -0.003237   0.003036  38.486600  -0.002139   0.002241   1.250540  10.210300   2.516500   1.162680   0.043586   3.880210  -1.754630  -0.877465  -1.822860  -0.000000   0.000000   0.000000   3.081370  12.171300  -1.938700   1.032550   0.445971 -14.011500  -2.555280  -4.187710  -2.945150   0.000000   0.000000   0.000000
 -0.615629  89.575300  -1.015800  -0.446527  -9.815750   5.727610   0.889472   5.616440   0.487215   1.743330  11.239600   0.892794  -9.708540   1.984880   0.338954 -15.996700   3.680190  13.204900  -2.186230   0.186746   1.413950 -52.025300   6.847330 -66.321800  11.458100 -28.404700 -109.923000  29.574800 -40.542600  15.425100  43.583200  43.449000 -87.975600 -22.719400   0.051315   0.021547  -6.359730   0.029555  -0.056754 -31.992800   4.466500  -7.396460 -26.420900  -0.002132  -0.058737 -18.494700  -0.001671  -0.039649 -29.173400  -4.053170   7.036480 -39.250900  -0.029973  -0.087362 -26.141000   0.004986  -0.060015 -27.023400  -3.601850   6.948260 -36.192500  -0.041804  -0.100775 -24.104200  -0.000420  -0.070822 -30.745600  -3.953640   6.730560 -46.487600  -0.009468  -0.103737 -30.960700   0.029230  -0.060939   3.526540   0.376231   7.079120  71.806800  23.446900   0.206283  -3.267650  -0.079695  17.365700 -12.466400  -7.131780   0.022150 -37.536900  29.293000  62.190000  30.552000   0.005064  -0.002889  10.276000   0.002475  -0.003859  29.369400   7.333290  12.779000  24.702300  -0.002779   0.002722  17.291600  -0.001939   0.002043  28.421300   4.722330   8.649830  41.258000  -0.003005   0.010122  27.477900  -0.001965   0.007003  28.169500   3.718140   6.904680  35.056000  -0.002290   0.000141  23.347300  -0.001514  -0.000128  38.493500  -0.647906  -0.814672  57.747200  -0.003247   0.002955  38.459600  -0.002147   0.002175   1.251780  10.189100   2.515880   1.158930   0.080938   3.859960  -1.754160  -0.898848  -1.851910   0.000000   0.000000   0.000000   3.079450  12.145800  -1.938260   1.028890   0.505395 -14.034500  -2.539850  -4.222530  -2.968600  -0.000000   0.000000   0.000000
 -0.585215  89.574700  -1.011050  -0.439302  -9.819080   5.775650   0.893275   5.597210   0.487082   1.751390  11.201200   0.892407  -9.753420   1.976380   0.338613 -16.069300   3.661110  13.327400  -2.201190   0.220239   1.340610 -51.537200   6.950440 -66.430100  11.692000 -28.181100 -109.456000  25.572700 -41.954500  13.146000  41.584000  41.064300 -85.007900 -20.090700   0.064313   0.021480  -5.045370   0.035755  -0.069053 -28.020400   4.025130  -7.391450 -23.139000  -0.006858  -0.069171 -16.197400  -0.001676  -0.048312 -27.246800  -4.298900   8.213380 -30.944100  -0.026447  -0.065410 -20.608800  -0.001936  -0.046086 -24.357200  -3.743340   8.061830 -27.743400  -0.035330  -0.072503 -18.477100  -0.005901  -0.052107 -25.801300  -3.987250   8.131300 -39.144100  -0.010725  -0.070653 -26.070000   0.013886  -0.043528   3.530090   0.396222   7.053960  71.874900  23.414300   0.151240  -3.252770  -0.049945  17.303100 -12.544900  -7.102330   0.023731 -37.509100  29.273300  62.191200  30.579900   0.005116  -0.002945  10.289900   0.002464  -0.003911  29.362500   7.310990  12.745300  24.693200  -0.002903   0.002696  17.285500  -0.002023   0.002031  28.423300   4.704840   8.617820  41.220300  -0.003139   0.010118  27.452800  -0.002055   0.006991  28.171500   3.710510   6.890370  35.062800  -0.002300   0.000154  23.351800  -0.001518  -0.000110  38.487000  -0.646115  -0.812611  57.737300  -0.003260   0.002880  38.453100  -0.002155   0.002108   1.251160  10.207400   2.515880   1.154490   0.058560   3.847260  -1.753420  -0.891321  -1.884800  -0.000000   0.000000   0.000000   3.079570  12.176400  -1.938080   1.022720   0.467705 -14.064500  -2.533330  -4.215400  -2.985820  -0.000000   0.000000   0.000000
 -0.554454  89.574200  -1.005540  -0.431212  -9.828640   5.822710   0.898234   5.582510   0.486255   1.761220  11.171800   0.890440  -9.826990   1.940850   0.336238 -16.188500   3.589700  13.587800  -2.216830   0.246881   1.253110 -51.056200   7.026340 -66.600600  11.943100 -28.095000 -108.840000  20.400200 -43.663900  10.280700  40.202000  39.150100 -82.895800 -17.108000   0.068282   0.021009  -3.554000   0.037235  -0.073226 -24.138700   3.302210  -7.380160 -19.922500  -0.008732  -0.070661 -13.945800  -0.001677  -0.049681 -25.274500  -4.426360   9.224070 -24.428200  -0.018252  -0.032951 -16.269200  -0.006093  -0.024764 -21.888900  -3.879370   9.466200 -21.100600  -0.023418  -0.031469 -14.053000  -0.010771  -0.024395 -22.564800  -4.019280   9.437110 -34.348100  -0.011983  -0.024052 -22.875800  -0.001470  -0.018229   3.529800   0.412334   7.034770  71.933400  23.403500   0.107700  -3.236970  -0.028330  17.231300 -12.627800  -7.081850   0.034813 -37.474200  29.243700  62.188700  30.605800   0.005167  -0.002995  10.302900   0.002454  -0.003962  29.361600   7.297420  12.722800  24.689700  -0.003025   0.002669  17.283100  -0.002107   0.002015  28.423700   4.695330   8.600420  41.183100  -0.003269   0.010110  27.428000  -0.002146   0.006979  28.172700   3.706970   6.883380  35.069500  -0.002309   0.000165  23.356300  -0.001521  -0.000087  38.481600  -0.644635  -0.810902  57.729200  -0.003273   0.002808  38.447700  -0.002164   0.002038   1.250040  10.233900   2.515960   1.151730   0.036181   3.838370  -1.751800  -0.883794  -1.918380   0.000000   0.000000  -0.000000   3.080460  12.223300  -1.937050   1.016560   0.430011 -14.101700  -2.529200  -4.208300  -2.994160  -0.000000   0.000000   0.000000
